<svg width="20" height="20" viewBox="0 0 20 20" xmlns="http://www.w3.org/2000/svg"><title>Dribbble</title><path d="M14.773 17.083c-.087-.515-.542-3.022-1.663-6.1 2.758-.44 5.146.316 5.322.373a8.542 8.542 0 0 1-3.66 5.727zM10 18.54a8.507 8.507 0 0 1-5.442-1.958c.113.092.192.15.192.15s1.637-3.57 6.702-5.336c.019-.007.039-.011.058-.017 1.201 3.122 1.697 5.737 1.824 6.483a8.512 8.512 0 0 1-3.334.678zM1.459 9.999c0-.09.005-.18.007-.269.152.004 4.372.099 8.769-1.217.244.479.478.967.692 1.452a5.81 5.81 0 0 0-.336.103c-4.609 1.488-6.947 5.634-6.947 5.634l.004.005a8.507 8.507 0 0 1-2.189-5.708zm4.897-7.721a51.08 51.08 0 0 1 3.172 4.92c-4.1 1.09-7.66 1.046-7.885 1.042a8.543 8.543 0 0 1 4.713-5.962zm1.598-.57v.003l-.027.005.027-.007zm7.687 1.884c-.022.032-1.238 1.884-4.462 3.092A43.391 43.391 0 0 0 7.987 1.7a8.506 8.506 0 0 1 7.653 1.89v.001zm2.897 6.323c-.123-.027-3.014-.65-5.948-.28-.061-.146-.121-.293-.185-.44-.177-.418-.369-.832-.568-1.24C15.21 6.58 16.58 4.6 16.596 4.577a8.506 8.506 0 0 1 1.942 5.339zm1.26-1.927a10.035 10.035 0 0 0-.585-1.88 9.994 9.994 0 0 0-3.622-4.398 9.97 9.97 0 0 0-1.698-.923A10.02 10.02 0 0 0 7.986.205a10.02 10.02 0 0 0-1.88.582 10.025 10.025 0 0 0-5.904 7.2 10.091 10.091 0 0 0 0 4.028 9.9 9.9 0 0 0 .585 1.878c.249.592.56 1.166.922 1.7.357.53.768 1.025 1.22 1.48a10.02 10.02 0 0 0 3.179 2.141 9.849 9.849 0 0 0 1.878.581 9.95 9.95 0 0 0 2.015.205c.677 0 1.354-.068 2.013-.205a9.849 9.849 0 0 0 3.577-1.504c.53-.358 1.028-.767 1.48-1.219.452-.454.864-.95 1.22-1.48a9.985 9.985 0 0 0 1.506-3.578 10.118 10.118 0 0 0 0-4.026z" fill="#6F6F71" fill-rule="evenodd"/></svg>