<svg width="70" height="70" viewBox="0 0 70 70" xmlns="http://www.w3.org/2000/svg" xmlns:xlink="http://www.w3.org/1999/xlink"><title>logo</title><desc>Created using Figma</desc><use xlink:href="#a" fill="#FF4365"/><defs><path id="a" fill-rule="evenodd" d="M8.816 11.774A34.868 34.868 0 0 0 0 35c0 19.33 15.67 35 35 35s35-15.67 35-35S54.33 0 35 0a34.865 34.865 0 0 0-22.956 8.58c2.065 1.68 3.868 4.503 5.494 8.675 1.164 2.989 2.6 4.835 4.416 5.666A17.732 17.732 0 0 1 35 17.22c9.82 0 17.78 7.96 17.78 17.779 0 9.82-7.96 17.78-17.78 17.78S17.22 44.82 17.22 35c0-3.031.759-5.885 2.097-8.383-2.518-1.443-4.531-4.05-5.965-7.732-1.477-3.791-2.983-6.027-4.446-7.05a4.346 4.346 0 0 0-.09-.061z"/></defs></svg>