<svg width="23" height="20" viewBox="0 0 23 20" xmlns="http://www.w3.org/2000/svg" xmlns:xlink="http://www.w3.org/1999/xlink"><title>medium-logo</title><desc>Created using Figma</desc><use xlink:href="#a" transform="translate(10.6)" fill="#FFF"/><use xlink:href="#b" transform="translate(8.25 4.904)" fill="#FFF"/><use xlink:href="#c" transform="translate(15.76 5.104)" fill="#FFF"/><use xlink:href="#d" transform="translate(0 .088)" fill="#FFF"/><defs><path id="a" d="M11.963 3.71L4.767.024A.237.237 0 0 0 4.665 0h-.008a.27.27 0 0 0-.22.12L0 7.492l4.955 8.23L12.042 3.95a.173.173 0 0 0-.079-.24z"/><path id="b" d="M0 0v7.94l6.907 3.534L0 0z"/><path id="c" d="M0 11.579l6.342 3.245c.345.176.627 0 .627-.4V0L0 11.579z"/><path id="d" d="M7.487 3.654L.839.256.423.048A.402.402 0 0 0 .251 0a.232.232 0 0 0-.18.088C.024.136 0 .216 0 .313v15.496c0 .265.188.577.423.697l6.53 3.334c.095.048.181.072.26.072.219 0 .376-.176.376-.465V3.814a.208.208 0 0 0-.102-.16z"/></defs></svg>