<svg width="24" height="20" viewBox="0 0 24 20" xmlns="http://www.w3.org/2000/svg"><title>Twitter</title><path d="M23.902 2.368a9.548 9.548 0 0 1-2.815.794A5.035 5.035 0 0 0 23.243.37a9.635 9.635 0 0 1-3.116 1.223A4.827 4.827 0 0 0 16.548 0c-2.706 0-4.902 2.26-4.902 5.049 0 .396.042.78.126 1.15C7.697 5.988 4.084 3.979 1.664.922A5.157 5.157 0 0 0 1 3.462c0 1.751.866 3.297 2.182 4.203a4.8 4.8 0 0 1-2.222-.63v.062c0 2.447 1.69 4.488 3.935 4.95a4.658 4.658 0 0 1-1.292.178c-.316 0-.624-.03-.923-.09.624 2.006 2.434 3.466 4.58 3.505A9.659 9.659 0 0 1 0 17.733 13.614 13.614 0 0 0 7.517 20c9.021 0 13.953-7.692 13.953-14.365 0-.22-.005-.439-.013-.654.958-.712 1.79-1.6 2.445-2.613" fill="#6F6F71" fill-rule="evenodd"/></svg>