<?xml version="1.0" encoding="UTF-8"?>
<svg width="63px" height="120px" viewBox="0 0 63 120" version="1.1" xmlns="http://www.w3.org/2000/svg" xmlns:xlink="http://www.w3.org/1999/xlink">
    <!-- Generator: Sketch 43.1 (39012) - http://www.bohemiancoding.com/sketch -->
    <title>Shape Copy 3</title>
    <desc>Created with Sketch.</desc>
    <defs></defs>
    <g id="Page-2" stroke="none" stroke-width="1" fill="none" fill-rule="evenodd">
        <g id="Roxberry---Order-Status-Delivered" transform="translate(-177.000000, -260.000000)" fill-rule="nonzero" fill="#44DB5E">
            <path d="M189.247713,371.62025 C188.937683,371.501459 188.622048,371.377741 188.299937,371.248897 L187.664291,370.994638 L187.537162,370.231863 C184.231802,345.187405 181.434959,319.63443 179.146633,291.920259 C178.638116,291.79313 178.129599,291.538871 177.87534,291.157484 C177.366824,290.648967 177.112565,289.886191 177.239694,289.123416 C177.239694,288.996287 177.239694,288.869157 177.366824,288.742028 C176.858307,287.724994 176.858307,286.580831 177.493953,285.563798 C177.621082,285.309539 177.748211,285.18241 177.87534,284.928151 C178.00247,284.801022 178.00247,284.673893 178.129599,284.546764 C178.129599,284.419634 178.256728,284.292505 178.256728,284.165376 C178.256728,283.911118 178.383857,283.656859 178.510987,283.402601 C178.892374,281.114275 180.545054,279.080207 182.96051,278.317432 L183.214768,278.190302 C183.469026,278.190302 183.596156,278.063173 183.850414,277.936044 C184.104673,277.681785 184.231802,277.300398 184.358931,276.791881 L184.48606,276.537622 C185.375965,274.757813 187.282903,273.61365 189.189842,273.486521 C189.316971,273.232262 189.571229,272.978004 189.825488,272.723746 C189.698359,272.088099 189.952617,271.325324 190.334005,270.816807 C190.969651,270.054032 191.859555,269.545515 192.495202,269.291256 C193.130848,268.909869 193.893623,268.65561 194.656398,268.274223 C195.419174,267.892835 196.181949,267.638576 196.817595,267.257189 C197.198983,267.13006 197.580371,266.875801 197.834629,266.748672 C197.961758,266.494413 198.216017,266.240155 198.216017,265.985897 L198.216017,265.985897 C199.614438,263.061924 203.174057,260.51934 206.352287,261.282115 C206.733675,261.282115 207.115063,261.027857 207.62358,260.773598 C208.259226,260.51934 208.894872,260.137952 209.657647,260.010823 C211.437456,259.883694 212.581619,260.900727 213.471524,261.790632 C214.10717,262.299149 214.615687,262.807666 215.251333,262.934795 C215.378462,262.934795 215.505592,263.061924 215.632721,263.061924 C215.886979,263.061924 216.395496,263.189054 216.776884,263.443312 C217.41253,263.69757 217.666789,264.206087 217.921047,264.714604 L218.048176,264.968863 C218.302435,265.223121 218.556693,265.47738 218.810952,265.604509 C219.06521,265.858767 219.319469,265.985897 219.573727,266.240155 C220.082244,266.748672 220.463632,267.384318 220.590761,268.019964 C222.37057,268.401352 223.896121,269.418386 224.913155,270.943936 L225.040284,271.071066 C225.167413,271.325324 225.167413,271.452453 225.294542,271.452453 C225.548801,271.452453 225.930188,271.452453 226.311576,271.579583 C227.455739,271.96097 228.091385,273.232262 228.091385,274.376426 L228.091385,275.901976 C228.727031,275.774847 229.489807,275.647718 230.125453,275.774847 C230.379711,275.774847 230.888228,275.774847 231.396745,276.156235 C232.032391,276.537622 232.28665,277.173269 232.413779,277.681785 C232.413779,277.808915 232.540908,277.808915 232.540908,277.936044 C232.795167,277.936044 233.303684,278.444561 233.303684,278.698819 C233.430813,278.953078 233.303684,279.334465 233.176554,280.097241 L233.303684,280.097241 C234.574976,280.351499 235.59201,280.860016 236.481914,281.495662 C237.753206,282.385567 238.515982,283.52973 238.643111,284.928151 L238.643111,285.055281 L238.643111,285.818056 C238.643111,286.326573 238.643111,286.707961 238.77024,286.83509 L238.89737,286.962219 C238.89737,287.089348 238.89737,287.089348 239.024499,287.089348 C239.914403,287.979253 240.168662,289.250545 239.914403,290.521837 C239.660145,291.538871 239.024499,292.428776 238.261723,292.937293 C235.973397,318.744526 230.379711,369.214829 230.379711,369.723346 L230.252582,370.358992 L229.744065,370.613251 C229.227111,370.893268 228.712893,371.154125 228.201877,371.397058 C227.966622,373.559183 227.796213,375.132906 227.709998,375.960571 C220.71789,379.520189 213.725783,379.265931 209.022001,379.011672 C199.614438,379.011672 196.05482,378.630284 189.825488,376.214829 C189.631446,374.685778 189.438825,373.154358 189.247713,371.62025 Z" id="Shape-Copy-3"></path>
        </g>
    </g>
</svg>