<?xml version="1.0" encoding="UTF-8"?>
<svg width="63px" height="115px" viewBox="0 0 63 115" version="1.1" xmlns="http://www.w3.org/2000/svg" xmlns:xlink="http://www.w3.org/1999/xlink">
    <!-- Generator: Sketch 43.1 (39012) - http://www.bohemiancoding.com/sketch -->
    <title>red</title>
    <desc>Created with Sketch.</desc>
    <defs></defs>
    <g id="Page-2" stroke="none" stroke-width="1" fill="none" fill-rule="evenodd">
        <g id="Roxberry---Order-Status-Ready" transform="translate(-175.000000, -264.000000)" fill-rule="nonzero" fill="#FE2851">
            <path d="M211.344395,378.554257 C209.818844,378.554257 208.293293,378.427127 207.022001,378.427127 C197.233051,378.427127 193.292045,378.04574 186.299937,375.248897 L185.664291,374.994638 L185.537162,374.231863 C182.231802,349.187405 179.434959,323.63443 177.146633,295.920259 C176.638116,295.79313 176.129599,295.538871 175.87534,295.157484 C175.366824,294.648967 175.112565,293.886191 175.239694,293.123416 C175.239694,292.996287 175.239694,292.869157 175.366824,292.742028 C174.858307,291.724994 174.858307,290.580831 175.493953,289.563798 C175.621082,289.309539 175.748211,289.18241 175.87534,288.928151 C176.00247,288.801022 176.00247,288.673893 176.129599,288.546764 C176.129599,288.419634 176.256728,288.292505 176.256728,288.165376 C176.256728,287.911118 176.383857,287.656859 176.510987,287.402601 C176.892374,285.114275 178.545054,283.080207 180.96051,282.317432 L181.214768,282.190302 C181.469026,282.190302 181.596156,282.063173 181.850414,281.936044 C182.104673,281.681785 182.231802,281.300398 182.358931,280.791881 L182.48606,280.537622 C183.375965,278.757813 185.282903,277.61365 187.189842,277.486521 C187.316971,277.232262 187.571229,276.978004 187.825488,276.723746 C187.698359,276.088099 187.952617,275.325324 188.334005,274.816807 C188.969651,274.054032 189.859555,273.545515 190.495202,273.291256 C191.130848,272.909869 191.893623,272.65561 192.656398,272.274223 C193.419174,271.892835 194.181949,271.638576 194.817595,271.257189 C195.198983,271.13006 195.580371,270.875801 195.834629,270.748672 C195.961758,270.494413 196.216017,270.240155 196.216017,269.985897 L196.216017,269.985897 C197.614438,267.061924 201.174057,264.51934 204.352287,265.282115 C204.733675,265.282115 205.115063,265.027857 205.62358,264.773598 C206.259226,264.51934 206.894872,264.137952 207.657647,264.010823 C209.437456,263.883694 210.581619,264.900727 211.471524,265.790632 C212.10717,266.299149 212.615687,266.807666 213.251333,266.934795 C213.378462,266.934795 213.505592,267.061924 213.632721,267.061924 C213.886979,267.061924 214.395496,267.189054 214.776884,267.443312 C215.41253,267.69757 215.666789,268.206087 215.921047,268.714604 L216.048176,268.968863 C216.302435,269.223121 216.556693,269.47738 216.810952,269.604509 C217.06521,269.858767 217.319469,269.985897 217.573727,270.240155 C218.082244,270.748672 218.463632,271.384318 218.590761,272.019964 C220.37057,272.401352 221.896121,273.418386 222.913155,274.943936 L223.040284,275.071066 C223.167413,275.325324 223.167413,275.452453 223.294542,275.452453 C223.548801,275.452453 223.930188,275.452453 224.311576,275.579583 C225.455739,275.96097 226.091385,277.232262 226.091385,278.376426 L226.091385,279.901976 C226.727031,279.774847 227.489807,279.647718 228.125453,279.774847 C228.379711,279.774847 228.888228,279.774847 229.396745,280.156235 C230.032391,280.537622 230.28665,281.173269 230.413779,281.681785 C230.413779,281.808915 230.540908,281.808915 230.540908,281.936044 C230.795167,281.936044 231.303684,282.444561 231.303684,282.698819 C231.430813,282.953078 231.303684,283.334465 231.176554,284.097241 L231.303684,284.097241 C232.574976,284.351499 233.59201,284.860016 234.481914,285.495662 C235.753206,286.385567 236.515982,287.52973 236.643111,288.928151 L236.643111,289.055281 L236.643111,289.818056 C236.643111,290.326573 236.643111,290.707961 236.77024,290.83509 L236.89737,290.962219 C236.89737,291.089348 236.89737,291.089348 237.024499,291.089348 C237.914403,291.979253 238.168662,293.250545 237.914403,294.521837 C237.660145,295.538871 237.024499,296.428776 236.261723,296.937293 C233.973397,322.744526 228.379711,373.214829 228.379711,373.723346 L228.252582,374.358992 L227.744065,374.613251 C221.641862,377.91861 215.921047,378.554257 211.344395,378.554257 Z" id="red"></path>
        </g>
    </g>
</svg>