<?xml version="1.0" encoding="UTF-8"?>
<svg width="63px" height="115px" viewBox="0 0 63 115" version="1.1" xmlns="http://www.w3.org/2000/svg" xmlns:xlink="http://www.w3.org/1999/xlink">
    <!-- Generator: Sketch 43.1 (39012) - http://www.bohemiancoding.com/sketch -->
    <title>Shape Copy 2</title>
    <desc>Created with Sketch.</desc>
    <defs></defs>
    <g id="Page-2" stroke="none" stroke-width="1" fill="none" fill-rule="evenodd">
        <g id="Roxberry---Order-Status-Making-" transform="translate(-176.000000, -265.000000)" fill-rule="nonzero" fill="#FFFFFF">
            <path d="M212.344395,379.554257 C210.818844,379.554257 209.293293,379.427127 208.022001,379.427127 C198.233051,379.427127 194.292045,379.04574 187.299937,376.248897 L186.664291,375.994638 L186.537162,375.231863 C183.231802,350.187405 180.434959,324.63443 178.146633,296.920259 C177.638116,296.79313 177.129599,296.538871 176.87534,296.157484 C176.366824,295.648967 176.112565,294.886191 176.239694,294.123416 C176.239694,293.996287 176.239694,293.869157 176.366824,293.742028 C175.858307,292.724994 175.858307,291.580831 176.493953,290.563798 C176.621082,290.309539 176.748211,290.18241 176.87534,289.928151 C177.00247,289.801022 177.00247,289.673893 177.129599,289.546764 C177.129599,289.419634 177.256728,289.292505 177.256728,289.165376 C177.256728,288.911118 177.383857,288.656859 177.510987,288.402601 C177.892374,286.114275 179.545054,284.080207 181.96051,283.317432 L182.214768,283.190302 C182.469026,283.190302 182.596156,283.063173 182.850414,282.936044 C183.104673,282.681785 183.231802,282.300398 183.358931,281.791881 L183.48606,281.537622 C184.375965,279.757813 186.282903,278.61365 188.189842,278.486521 C188.316971,278.232262 188.571229,277.978004 188.825488,277.723746 C188.698359,277.088099 188.952617,276.325324 189.334005,275.816807 C189.969651,275.054032 190.859555,274.545515 191.495202,274.291256 C192.130848,273.909869 192.893623,273.65561 193.656398,273.274223 C194.419174,272.892835 195.181949,272.638576 195.817595,272.257189 C196.198983,272.13006 196.580371,271.875801 196.834629,271.748672 C196.961758,271.494413 197.216017,271.240155 197.216017,270.985897 L197.216017,270.985897 C198.614438,268.061924 202.174057,265.51934 205.352287,266.282115 C205.733675,266.282115 206.115063,266.027857 206.62358,265.773598 C207.259226,265.51934 207.894872,265.137952 208.657647,265.010823 C210.437456,264.883694 211.581619,265.900727 212.471524,266.790632 C213.10717,267.299149 213.615687,267.807666 214.251333,267.934795 C214.378462,267.934795 214.505592,268.061924 214.632721,268.061924 C214.886979,268.061924 215.395496,268.189054 215.776884,268.443312 C216.41253,268.69757 216.666789,269.206087 216.921047,269.714604 L217.048176,269.968863 C217.302435,270.223121 217.556693,270.47738 217.810952,270.604509 C218.06521,270.858767 218.319469,270.985897 218.573727,271.240155 C219.082244,271.748672 219.463632,272.384318 219.590761,273.019964 C221.37057,273.401352 222.896121,274.418386 223.913155,275.943936 L224.040284,276.071066 C224.167413,276.325324 224.167413,276.452453 224.294542,276.452453 C224.548801,276.452453 224.930188,276.452453 225.311576,276.579583 C226.455739,276.96097 227.091385,278.232262 227.091385,279.376426 L227.091385,280.901976 C227.727031,280.774847 228.489807,280.647718 229.125453,280.774847 C229.379711,280.774847 229.888228,280.774847 230.396745,281.156235 C231.032391,281.537622 231.28665,282.173269 231.413779,282.681785 C231.413779,282.808915 231.540908,282.808915 231.540908,282.936044 C231.795167,282.936044 232.303684,283.444561 232.303684,283.698819 C232.430813,283.953078 232.303684,284.334465 232.176554,285.097241 L232.303684,285.097241 C233.574976,285.351499 234.59201,285.860016 235.481914,286.495662 C236.753206,287.385567 237.515982,288.52973 237.643111,289.928151 L237.643111,290.055281 L237.643111,290.818056 C237.643111,291.326573 237.643111,291.707961 237.77024,291.83509 L237.89737,291.962219 C237.89737,292.089348 237.89737,292.089348 238.024499,292.089348 C238.914403,292.979253 239.168662,294.250545 238.914403,295.521837 C238.660145,296.538871 238.024499,297.428776 237.261723,297.937293 C234.973397,323.744526 229.379711,374.214829 229.379711,374.723346 L229.252582,375.358992 L228.744065,375.613251 C222.641862,378.91861 216.921047,379.554257 212.344395,379.554257 Z" id="Shape-Copy-2"></path>
        </g>
    </g>
</svg>