<?xml version="1.0" encoding="UTF-8"?>
<svg width="92px" height="97px" viewBox="0 0 92 97" version="1.1" xmlns="http://www.w3.org/2000/svg" xmlns:xlink="http://www.w3.org/1999/xlink">
    <!-- Generator: Sketch 42 (36781) - http://www.bohemiancoding.com/sketch -->
    <title>noun_760588_cc</title>
    <desc>Created with Sketch.</desc>
    <defs></defs>
    <g id="Page-1" stroke="none" stroke-width="1" fill="none" fill-rule="evenodd">
        <g id="noun_760588_cc" fill-rule="nonzero" fill="#FFFFFF">
            <path d="M61.7,23.2 C61.6,22.9 61.3,22.7 61,22.6 L58,22.2 L56.7,19.5 C56.6,19.2 56.4,19 56,19 L56,19 C55.7,19 55.4,19.2 55.3,19.4 L54,22.2 L51,22.6 C50.7,22.6 50.4,22.9 50.3,23.2 C50.2,23.5 50.3,23.8 50.5,24 L52.6,26.1 L52.1,29.1 C52,29.4 52.2,29.7 52.4,29.9 C52.7,30 52.8,30 53,30 C53.1,30 53.3,30 53.4,29.9 L56.1,28.5 L58.8,29.9 C59.1,30 59.4,30 59.7,29.8 C60,29.6 60.1,29.3 60,29 L59.5,26 L61.6,23.9 C61.7,23.8 61.8,23.5 61.7,23.2 Z" id="Shape"></path>
            <path d="M78.3,44.7 C78.2,44.5 78,44.3 77.8,44.3 L75.4,44 L74.3,41.9 C74.2,41.7 74,41.6 73.7,41.6 L73.7,41.6 C73.4,41.6 73.2,41.7 73.1,41.9 L72,44 L69.6,44.3 C69.4,44.3 69.1,44.5 69.1,44.7 C69,44.9 69.1,45.2 69.3,45.4 L71,47.1 L70.6,49.5 C70.6,49.7 70.7,50 70.9,50.1 C71,50.2 71.1,50.2 71.3,50.2 C71.4,50.2 71.5,50.2 71.6,50.1 L73.7,49 L75.8,50.1 C76,50.2 76.3,50.2 76.5,50 C76.7,49.9 76.8,49.6 76.8,49.4 L76.4,47 L78.1,45.3 C78.4,45.2 78.4,45 78.3,44.7 Z" id="Shape"></path>
            <path d="M83.9,9 C83.8,8.7 83.5,8.4 83.1,8.3 L79.6,7.8 L78,4.7 C77.8,4.4 77.5,4.2 77.1,4.2 L77.1,4.2 C76.7,4.2 76.4,4.4 76.2,4.7 L74.6,7.8 L71.1,8.3 C70.7,8.4 70.4,8.6 70.3,9 C70.2,9.4 70.3,9.7 70.5,10 L73,12.4 L72.4,15.9 C72.3,16.3 72.5,16.6 72.8,16.8 C73,16.9 73.2,17 73.4,17 C73.6,17 73.7,17 73.8,16.9 L76.9,15.3 L80,16.9 C80.3,17.1 80.7,17 81,16.8 C81.3,16.6 81.4,16.2 81.4,15.9 L80.8,12.4 L83.3,10 C83.9,9.8 84,9.4 83.9,9 Z" id="Shape"></path>
            <path d="M71.3,75.7 C47,75.7 27.3,55.9 27.3,31.7 C27.3,19.3 32.5,8.1 40.7,0.1 C17.8,4 0.4,23.9 0.4,47.9 C0.4,74.6 22.2,96.4 48.9,96.4 C67.4,96.4 83.5,86 91.7,70.8 C85.5,73.9 78.6,75.7 71.3,75.7 Z" id="Shape"></path>
        </g>
    </g>
</svg>