<svg width="214" height="205" viewBox="0 0 214 205" version="1.1" xmlns="http://www.w3.org/2000/svg" xmlns:xlink="http://www.w3.org/1999/xlink">
<title>drums</title>
<desc>Created using Figma</desc>
<g id="Canvas" transform="translate(-1003 -74)">
<g id="drums">
<g id="Subtract">
<use xlink:href="#path0_fill" transform="translate(1004.62 121.952)" fill="#3066BE"/>
</g>
<g id="JS">
<use xlink:href="#path1_fill" transform="translate(1070.28 191.571)" fill="#3066BE"/>
</g>
<g id="stick2">
<use xlink:href="#path2_fill" transform="translate(1102.91 121.908)" fill="#3066BE"/>
<mask id="mask0_outline_out">
<rect id="mask0_outline_inv" fill="white" x="-1" y="-2" width="115" height="71" transform="translate(1102.91 121.908)"/>
<use xlink:href="#path2_fill" fill="black" transform="translate(1102.91 121.908)"/>
</mask>
<g mask="url(#mask0_outline_out)">
<use xlink:href="#path3_stroke_2x" transform="translate(1102.91 121.908)" fill="#FFFFFF"/>
</g>
</g>
<g id="stick1">
<use xlink:href="#path4_fill" transform="translate(1004.55 75.96)" fill="#3066BE"/>
<mask id="mask1_outline_out">
<rect id="mask1_outline_inv" fill="white" x="-2" y="-2" width="74" height="114" transform="translate(1004.55 75.96)"/>
<use xlink:href="#path4_fill" fill="black" transform="translate(1004.55 75.96)"/>
</mask>
<g mask="url(#mask1_outline_out)">
<use xlink:href="#path5_stroke_2x" transform="translate(1004.55 75.96)" fill="#FFFFFF"/>
</g>
</g>
</g>
</g>
<defs>
<path id="path0_fill" fill-rule="evenodd" d="M 157.268 78.5238C 157.268 121.891 122.063 157.048 78.6342 157.048C 35.2057 157.048 0 121.891 0 78.5238C 0 35.1563 35.2057 0 78.6342 0C 122.063 0 157.268 35.1563 157.268 78.5238ZM 107.007 78.5238C 107.007 94.1719 94.3042 106.857 78.6342 106.857C 62.9641 106.857 50.261 94.1719 50.261 78.5238C 50.261 62.8757 62.9641 50.1905 78.6342 50.1905C 94.3042 50.1905 107.007 62.8757 107.007 78.5238ZM 145.111 78.5238C 145.111 115.178 115.354 144.902 78.6342 144.902C 41.9144 144.902 12.157 115.178 12.157 78.5238C 12.157 41.8695 41.9144 12.1457 78.6342 12.1457C 115.354 12.1457 145.111 41.8695 145.111 78.5238ZM 149.162 78.5238C 149.162 117.42 117.585 148.952 78.6342 148.952C 39.6829 148.952 8.10657 117.42 8.10657 78.5238C 8.10657 39.6272 39.6829 8.09522 78.6342 8.09522C 117.585 8.09522 149.162 39.6272 149.162 78.5238Z"/>
<path id="path1_fill" d="M 5.42186 17.2527C 7.10685 17.2527 8.49697 16.7262 9.46584 15.7573C 10.4558 14.7674 10.9191 13.4615 10.9191 11.608L 10.9191 2.25632L 6.8541 2.25632L 6.8541 11.587C 6.8541 12.956 6.20116 13.6511 5.16911 13.6511C 4.26342 13.6511 3.58943 13.1456 2.8733 12.282L 0.240503 14.7674C 1.27256 16.1786 2.85224 17.2527 5.42186 17.2527ZM 19.143 17.2527C 22.7236 17.2527 25.1037 15.4624 25.1037 12.4505L 25.1037 12.4084C 25.1037 9.64922 22.9974 8.55398 19.6064 7.81679C 17.5633 7.35342 17.0578 7.05854 17.0578 6.38455L 17.0578 6.34242C 17.0578 5.81586 17.5423 5.39461 18.5322 5.39461C 19.8381 5.39461 21.3125 5.90011 22.6604 6.84792L 24.7035 3.96237C 23.1028 2.67756 21.144 2.00357 18.6375 2.00357C 15.099 2.00357 12.9296 3.98343 12.9296 6.72155L 12.9296 6.76367C 12.9296 9.79666 15.3518 10.6813 18.4901 11.3974C 20.491 11.8608 20.9755 12.1978 20.9755 12.8086L 20.9755 12.8507C 20.9755 13.4826 20.3857 13.8617 19.2905 13.8617C 17.5844 13.8617 15.9626 13.2509 14.5093 12.0925L 12.2346 14.8095C 14.0459 16.4313 16.5313 17.2527 19.143 17.2527Z"/>
<path id="path2_fill" fill-rule="evenodd" d="M 17.2197 59.0113C 16.2214 60.86 13.9445 63.0166 10.9478 64.7546C 6.17432 67.5232 1.3822 68.1816 0.244263 66.2251C -0.893677 64.2687 2.05347 60.4383 6.82703 57.6697C 9.82361 55.9317 12.8276 55.0253 14.9303 55.0753L 109.889 0L 112.178 3.93606L 17.2197 59.0113Z"/>
<path id="path3_stroke_2x" d="M 17.2197 59.0113L 16.7634 58.2246L 16.5414 58.3534L 16.4194 58.5792L 17.2197 59.0113ZM 10.9478 64.7546L 10.4914 63.9679L 10.4914 63.9679L 10.9478 64.7546ZM 0.244263 66.2251L 1.03046 65.7679L 1.03046 65.7679L 0.244263 66.2251ZM 6.82703 57.6697L 7.28333 58.4565L 7.28335 58.4565L 6.82703 57.6697ZM 14.9303 55.0753L 14.9086 55.9846L 15.1649 55.9907L 15.3866 55.8621L 14.9303 55.0753ZM 109.889 0L 110.675 -0.45729L 110.218 -1.2425L 109.432 -0.786754L 109.889 0ZM 112.178 3.93606L 112.634 4.72281L 113.422 4.26593L 112.964 3.47877L 112.178 3.93606ZM 16.4194 58.5792C 15.5304 60.2255 13.4083 62.2761 10.4914 63.9679L 11.4041 65.5414C 14.4806 63.757 16.9124 61.4945 18.02 59.4435L 16.4194 58.5792ZM 10.4914 63.9679C 8.17793 65.314 5.95321 66.1123 4.10891 66.3607C 3.20993 66.4869 2.52768 66.4785 1.94508 66.3275C 1.41416 66.1954 1.15306 65.9787 1.03046 65.7679L -0.541931 66.6824C -0.0955633 67.4499 0.66908 67.8845 1.5059 68.0927C 2.29103 68.282 3.31851 68.3027 4.35649 68.1628C 6.38608 67.8791 8.94414 66.9638 11.4041 65.5414L 10.4914 63.9679ZM 1.03046 65.7679C 0.907991 65.5573 0.848944 65.2241 0.996901 64.6989C 1.15414 64.1191 1.48455 63.5237 2.03966 62.8066C 3.16951 61.3301 4.96603 59.7961 7.28333 58.4565L 6.37072 56.883C 3.91446 58.3119 1.85064 60.0774 0.598001 61.6974C -0.0381246 62.5285 -0.529487 63.4305 -0.753962 64.2057C -0.987723 65.0355 -0.988435 65.9148 -0.54193 66.6824L 1.03046 65.7679ZM 7.28335 58.4565C 10.2 56.7648 13.0355 55.94 14.9086 55.9846L 14.9519 54.1661C 12.6198 54.1106 9.44726 55.0986 6.37071 56.883L 7.28335 58.4565ZM 15.3866 55.8621L 110.345 0.786754L 109.432 -0.786754L 14.474 54.2886L 15.3866 55.8621ZM 109.102 0.45729L 111.392 4.39335L 112.964 3.47877L 110.675 -0.45729L 109.102 0.45729ZM 111.722 3.1493L 16.7634 58.2246L 17.676 59.7981L 112.634 4.72281L 111.722 3.1493Z"/>
<path id="path4_fill" fill-rule="evenodd" d="M 61.7769 93.1752C 63.6567 94.1176 65.8819 96.3274 67.7093 99.268C 70.6201 103.952 71.419 108.716 69.494 109.909C 67.5689 111.102 63.6486 108.272 60.7379 103.588C 58.9106 100.648 57.9156 97.6761 57.9041 95.5758L 0 2.40015L 3.87299 0L 61.7769 93.1752Z"/>
<path id="path5_stroke_2x" d="M 61.7769 93.1752L 61.0044 93.6553L 61.1399 93.8732L 61.3693 93.9882L 61.7769 93.1752ZM 67.7093 99.268L 66.9368 99.748L 66.9368 99.748L 67.7093 99.268ZM 60.7379 103.588L 61.5103 103.108L 61.5103 103.108L 60.7379 103.588ZM 57.9041 95.5758L 58.8136 95.5708L 58.8122 95.3139L 58.6766 95.0957L 57.9041 95.5758ZM 0 2.40015L -0.479096 1.62705L -1.25316 2.10675L -0.77249 2.88021L 0 2.40015ZM 3.87299 0L 4.64548 -0.480066L 4.16601 -1.25159L 3.39389 -0.773092L 3.87299 0ZM 61.3693 93.9882C 63.0436 94.8277 65.1583 96.8861 66.9368 99.748L 68.4818 98.7879C 66.6055 95.7687 64.2697 93.4075 62.1845 92.3621L 61.3693 93.9882ZM 66.9368 99.748C 68.3518 102.018 69.2156 104.215 69.5181 106.048C 69.6706 106.941 69.6821 107.622 69.548 108.207C 69.4315 108.74 69.2226 109.007 69.0149 109.136L 69.9731 110.682C 70.7279 110.214 71.1409 109.438 71.3251 108.596C 71.4917 107.806 71.4824 106.779 71.312 105.747C 70.9686 103.729 69.9776 101.202 68.4818 98.7879L 66.9368 99.748ZM 69.0149 109.136C 68.8069 109.265 68.4741 109.333 67.9433 109.201C 67.3581 109.061 66.752 108.748 66.0179 108.215C 64.5069 107.13 62.919 105.382 61.5103 103.108L 59.9654 104.068C 61.4675 106.478 63.2951 108.487 64.9532 109.69C 65.8037 110.3 66.7205 110.764 67.5027 110.966C 68.3394 111.175 69.2185 111.15 69.9731 110.682L 69.0149 109.136ZM 61.5103 103.108C 59.7319 100.246 58.8238 97.441 58.8136 95.5708L 56.9946 95.5808C 57.0074 97.9112 58.0893 101.049 59.9654 104.068L 61.5103 103.108ZM 58.6766 95.0957L 0.77249 1.92008L -0.77249 2.88021L 57.1316 96.0559L 58.6766 95.0957ZM 0.479096 3.17324L 4.35208 0.773092L 3.39389 -0.773092L -0.479096 1.62705L 0.479096 3.17324ZM 3.1005 0.480066L 61.0044 93.6553L 62.5494 92.6951L 4.64548 -0.480066L 3.1005 0.480066Z"/>
</defs>
</svg>
