<svg width="20" height="20" viewBox="0 0 20 20" xmlns="http://www.w3.org/2000/svg" xmlns:xlink="http://www.w3.org/1999/xlink"><title>github-logo</title><desc>Created using Figma</desc><g id="Canvas" transform="translate(-4104 -713)"><g id="github-logo"><g id="Group"><use xlink:href="#path0_fill" transform="translate(4104 713)" fill="#FFF" id="Vector"/><use xlink:href="#path1_fill" transform="translate(4107.54 727.548)" fill="#FFF" id="Vector"/><use xlink:href="#path2_fill" transform="translate(4107.93 727.88)" fill="#FFF" id="Vector"/><use xlink:href="#path3_fill" transform="translate(4108.32 728.428)" fill="#FFF" id="Vector"/><use xlink:href="#path4_fill" transform="translate(4108.79 729.017)" fill="#FFF" id="Vector"/><use xlink:href="#path5_fill" transform="translate(4109.47 729.454)" fill="#FFF" id="Vector"/><use xlink:href="#path6_fill" transform="translate(4110.26 729.586)" fill="#FFF" id="Vector"/><use xlink:href="#path7_fill" transform="translate(4111.04 729.48)" fill="#FFF" id="Vector"/></g></g></g><defs><path id="path0_fill" fill-rule="evenodd" d="M10.008 0C4.474 0 0 4.584 0 10.254c0 4.532 2.867 8.369 6.843 9.727.497.102.68-.22.68-.493 0-.237-.017-1.052-.017-1.9-2.784.61-3.364-1.223-3.364-1.223-.447-1.188-1.11-1.494-1.11-1.494-.911-.628.067-.628.067-.628 1.01.068 1.54 1.052 1.54 1.052.895 1.562 2.337 1.12 2.917.85.083-.663.348-1.121.63-1.376-2.22-.238-4.557-1.12-4.557-5.059 0-1.12.398-2.037 1.027-2.75-.1-.254-.447-1.307.1-2.716 0 0 .845-.272 2.75 1.053a9.472 9.472 0 0 1 2.502-.34c.845 0 1.707.119 2.502.34 1.906-1.325 2.75-1.053 2.75-1.053.548 1.409.2 2.462.1 2.716.647.713 1.028 1.63 1.028 2.75 0 3.939-2.337 4.804-4.574 5.06.365.322.68.933.68 1.9 0 1.375-.017 2.479-.017 2.818 0 .272.182.595.68.493C17.133 18.623 20 14.786 20 10.253 20.017 4.584 15.526 0 10.008 0z"/><path id="path1_fill" d="M.26.17C.242.221.16.238.092.204.027.17-.023.103.011.052.027 0 .11-.016.176.018.243.052.276.12.26.17z"/><path id="path2_fill" d="M.26.296C.212.347.113.313.063.246-.004.176-.021.075.029.024c.05-.051.132-.017.199.05C.294.16.31.262.26.296z"/><path id="path3_fill" d="M.265.343C.2.393.1.343.05.258-.017.173-.017.054.05.02c.066-.05.165 0 .215.085.066.085.066.187 0 .238z"/><path id="path4_fill" d="M.35.33C.3.398.184.381.085.297.002.212-.031.093.035.042.085-.026.201-.01.3.076.383.144.4.263.35.33z"/><path id="path5_fill" d="M.417.217C.4.302.284.336.168.302.052.268-.014.166.003.098.019.013.135-.021.25.013c.116.034.182.119.166.204z"/><path id="path6_fill" d="M.43.153C.43.238.332.306.216.306.1.306 0 .238 0 .153 0 .068.1 0 .215 0c.116 0 .216.068.216.153z"/><path id="path7_fill" d="M.416.122C.433.207.35.292.234.31.118.326.02.275.002.19-.014.105.068.02.184.003.3-.014.4.037.416.123z"/></defs></svg>