<?xml version="1.0" encoding="UTF-8"?>
<svg width="22px" height="20px" viewBox="0 0 22 20" version="1.1" xmlns="http://www.w3.org/2000/svg" xmlns:xlink="http://www.w3.org/1999/xlink">
    <!-- Generator: Sketch 42 (36781) - http://www.bohemiancoding.com/sketch -->
    <title>LinkedIn</title>
    <desc>Created with Sketch.</desc>
    <defs></defs>
    <g id="Portfolio" stroke="none" stroke-width="1" fill="none" fill-rule="evenodd">
        <g id="Desktop-HD" transform="translate(-794.000000, -340.000000)" fill="#FF5757">
            <path d="M816,360 L811.1377,360 L811.1377,352.9692 C811.1377,351.128898 810.377117,349.872575 808.70461,349.872575 C807.425329,349.872575 806.713899,350.720369 806.382761,351.537427 C806.258584,351.830697 806.277987,352.239226 806.277987,352.647756 L806.277987,360 L801.46096,360 C801.46096,360 801.523048,347.545623 801.46096,346.413524 L806.277987,346.413524 L806.277987,348.545815 C806.562559,347.613498 808.101834,346.282897 810.558208,346.282897 C813.605715,346.282897 816,348.237177 816,352.445412 L816,360 L816,360 Z M796.589605,344.714094 L796.558561,344.714094 C795.00635,344.714094 794,343.675482 794,342.358968 C794,341.016841 795.036101,340 796.619356,340 C798.201317,340 799.174036,341.014279 799.20508,342.355126 C799.20508,343.67164 798.201317,344.714094 796.589605,344.714094 L796.589605,344.714094 L796.589605,344.714094 Z M794.554915,346.413524 L798.842897,346.413524 L798.842897,360 L794.554915,360 L794.554915,346.413524 L794.554915,346.413524 Z" id="LinkedIn"></path>
        </g>
    </g>
</svg>