<?xml version="1.0" encoding="UTF-8"?>
<svg width="22px" height="20px" viewBox="0 0 22 20" version="1.1" xmlns="http://www.w3.org/2000/svg" xmlns:xlink="http://www.w3.org/1999/xlink">
    <!-- Generator: Sketch 42 (36781) - http://www.bohemiancoding.com/sketch -->
    <title>LinkedIn</title>
    <desc>Created with Sketch.</desc>
    <defs></defs>
    <g id="Portfolio" stroke="none" stroke-width="1" fill="none" fill-rule="evenodd">
        <g id="Desktop-HD" transform="translate(-794.000000, -530.000000)" fill="#FFFFFF">
            <path d="M816,550 L811.1377,550 L811.1377,542.9692 C811.1377,541.128898 810.377117,539.872575 808.70461,539.872575 C807.425329,539.872575 806.713899,540.720369 806.382761,541.537427 C806.258584,541.830697 806.277987,542.239226 806.277987,542.647756 L806.277987,550 L801.46096,550 C801.46096,550 801.523048,537.545623 801.46096,536.413524 L806.277987,536.413524 L806.277987,538.545815 C806.562559,537.613498 808.101834,536.282897 810.558208,536.282897 C813.605715,536.282897 816,538.237177 816,542.445412 L816,550 L816,550 Z M796.589605,534.714094 L796.558561,534.714094 C795.00635,534.714094 794,533.675482 794,532.358968 C794,531.016841 795.036101,530 796.619356,530 C798.201317,530 799.174036,531.014279 799.20508,532.355126 C799.20508,533.67164 798.201317,534.714094 796.589605,534.714094 L796.589605,534.714094 L796.589605,534.714094 Z M794.554915,536.413524 L798.842897,536.413524 L798.842897,550 L794.554915,550 L794.554915,536.413524 L794.554915,536.413524 Z" id="LinkedIn"></path>
        </g>
    </g>
</svg>