<svg width="168" height="168" viewBox="0 0 168 168" xmlns="http://www.w3.org/2000/svg"><title>logo</title><g id="Page-1" fill="none" fill-rule="evenodd"><g id="logo"><circle id="Oval" fill="#FFF" cx="84" cy="84" r="84"/><path d="M36.869 42.193A62.762 62.762 0 0 0 21 84c0 34.794 28.206 63 63 63s63-28.206 63-63-28.206-63-63-63a62.757 62.757 0 0 0-41.32 15.444c3.716 3.024 6.962 8.105 9.888 15.615 2.096 5.38 4.68 8.703 7.95 10.199A31.918 31.918 0 0 1 84 51.996c17.676 0 32.004 14.328 32.004 32.002 0 17.676-14.328 32.004-32.004 32.004S51.996 101.676 51.996 84a31.862 31.862 0 0 1 3.775-15.09c-4.533-2.597-8.156-7.29-10.737-13.917-2.659-6.824-5.37-10.849-8.003-12.69a7.823 7.823 0 0 0-.162-.11z" id="a" fill="#FF4365" fill-rule="nonzero"/></g></g></svg>