<?xml version="1.0" encoding="UTF-8"?>
<svg width="113px" height="101px" viewBox="0 0 113 101" version="1.1" xmlns="http://www.w3.org/2000/svg" xmlns:xlink="http://www.w3.org/1999/xlink">
    <!-- Generator: Sketch 42 (36781) - http://www.bohemiancoding.com/sketch -->
    <title>Combined Shape@2x</title>
    <desc>Created with Sketch.</desc>
    <defs></defs>
    <g id="Page-1" stroke="none" stroke-width="1" fill="none" fill-rule="evenodd">
        <path d="M52.2383,39.7443 L54.5403,45.8633 L33.0323,100.3293 L28.3673,100.3293 L52.2383,39.7443 Z M47.6338,27.7477 L49.9358,33.7467 L23.7018,100.3297 L18.9768,100.3297 L47.6338,27.7477 Z M42.7866,16.2365 L45.2706,21.8105 L14.2506,100.3295 L9.5856,100.3295 L42.7866,16.2365 Z M58.6602,-0.0006 L63.3252,-0.0006 L103.0092,100.3294 L98.3442,100.3294 L58.6602,-0.0006 Z M68.0508,-0.0006 L72.7158,-0.0006 L112.3998,100.3294 L107.6738,100.3294 L68.0508,-0.0006 Z M49.2687,-0.0006 L53.9347,-0.0006 L93.6177,100.3294 L88.8927,100.3294 L49.2687,-0.0006 Z M39.8781,-0.0006 L44.6041,-0.0006 L84.2271,100.3294 L79.5621,100.3294 L42.2411,5.8764 L4.9201,100.3294 L0.1941,100.3294 L39.8781,-0.0006 Z" id="Combined-Shape" fill="#FFFFFF" fill-rule="nonzero"></path>
    </g>
</svg>