<svg width="70" height="70" viewBox="0 0 70 70" version="1.1" xmlns="http://www.w3.org/2000/svg" xmlns:xlink="http://www.w3.org/1999/xlink">
<title>logo</title>
<desc>Created using Figma</desc>
<g id="Canvas" transform="translate(-469 -189)">
<g id="logo">
<g id="Page 1">
<g id="logo">
<use xlink:href="#path0_fill" transform="translate(469 189)" fill="#FF4365"/>
</g>
</g>
</g>
</g>
<defs>
<path id="path0_fill" fill-rule="evenodd" d="M 8.81644 11.774C 3.33121 17.9531 -2.13791e-10 26.0876 -2.13791e-10 35C -2.13791e-10 54.33 15.67 70 35 70C 54.33 70 70 54.33 70 35C 70 15.67 54.33 -2.13791e-10 35 -2.13791e-10C 26.2166 -2.13791e-10 18.1888 3.23547 12.0435 8.57962C 14.1086 10.2603 15.9124 13.0829 17.5376 17.255C 18.702 20.2439 20.1385 22.0895 21.9536 22.9207C 25.2011 19.4148 29.8443 17.2203 35 17.2203C 44.8194 17.2203 52.7797 25.1806 52.7797 35C 52.7797 44.8194 44.8194 52.7797 35 52.7797C 25.1806 52.7797 17.2203 44.8194 17.2203 35C 17.2203 31.9688 17.9789 29.1147 19.3165 26.6173C 16.7994 25.1745 14.786 22.5666 13.352 18.8855C 11.8749 15.0937 10.3686 12.8576 8.90649 11.8355C 8.8764 11.8144 8.84639 11.7939 8.81644 11.774Z"/>
</defs>
</svg>
