<svg width="23" height="20" viewBox="0 0 23 20" xmlns="http://www.w3.org/2000/svg" xmlns:xlink="http://www.w3.org/1999/xlink"><title>medium-logo-social</title><desc>Created using Figma</desc><g id="Canvas" transform="translate(-10607 2512)"><g id="medium-logo-social"><g id="Canvas"><g id="medium logo social"><g id="Group"><g id="Vector"><use xlink:href="#path0_fill" transform="translate(10617.6 -2512)" fill="#FFF" id="Vector"/></g><g id="Vector"><use xlink:href="#path1_fill" transform="translate(10615.2 -2507.1)" fill="#FFF" id="Vector"/></g><g id="Vector"><use xlink:href="#path2_fill" transform="translate(10622.8 -2506.9)" fill="#FFF" id="Vector"/></g><g id="Vector"><use xlink:href="#path3_fill" transform="translate(10607 -2511.91)" fill="#FFF" id="Vector"/></g></g></g></g></g></g><defs><path id="path0_fill" d="M11.963 3.71L4.767.024A.237.237 0 0 0 4.665 0h-.008a.27.27 0 0 0-.22.12L0 7.492l4.955 8.23L12.042 3.95a.173.173 0 0 0-.079-.24z"/><path id="path1_fill" d="M0 0v7.94l6.907 3.534L0 0z"/><path id="path2_fill" d="M0 11.579l6.342 3.245c.345.176.627 0 .627-.4V0L0 11.579z"/><path id="path3_fill" d="M7.487 3.654L.839.256.423.048A.402.402 0 0 0 .251 0a.232.232 0 0 0-.18.088C.024.136 0 .216 0 .313v15.496c0 .265.188.577.423.697l6.53 3.334c.095.048.181.072.26.072.219 0 .376-.176.376-.465V3.814a.208.208 0 0 0-.102-.16z"/></defs></svg>