<svg width="209" height="105" viewBox="0 0 209 105" version="1.1" xmlns="http://www.w3.org/2000/svg" xmlns:xlink="http://www.w3.org/1999/xlink">
<title>nifty quotes</title>
<desc>Created using Figma</desc>
<g id="Canvas" transform="translate(-635 -153)">
<g id="nifty quotes">
<g id="base">
<use xlink:href="#path0_fill" transform="translate(635 153)" fill="#EE4266"/>
</g>
<g id="text1">
<use xlink:href="#path1_fill" transform="translate(668.298 175.55)" fill="#FFFFFF"/>
</g>
<g id="text2">
<use xlink:href="#path1_fill" transform="translate(668.298 184.302)" fill="#FFFFFF"/>
</g>
<g id="name">
<use xlink:href="#path2_fill" transform="translate(770.319 193.872)" fill="#FFFFFF"/>
</g>
<g id="button">
<use xlink:href="#path3_fill" transform="translate(787.322 210.081)" fill="#FFFFFF"/>
</g>
<g id="buttonText">
<use xlink:href="#path4_fill" transform="translate(798.658 231.221)" fill="#EE4266"/>
</g>
</g>
</g>
<defs>
<path id="path0_fill" d="M 0 8C 0 3.58172 3.58172 0 8 0L 201 0C 205.418 0 209 3.58172 209 8L 209 77.2685C 209 81.6867 205.418 85.2685 201 85.2685L 8 85.2685C 3.58172 85.2685 0 81.6867 0 77.2685L 0 8Z"/>
<path id="path1_fill" d="M 0 0L 143.112 0L 143.112 5.63758L 0 5.63758L 0 0Z"/>
<path id="path2_fill" d="M 0 0L 41.0915 0L 41.0915 5.63758L 0 5.63758L 0 0Z"/>
<path id="path3_fill" d="M 48.1763 23.9597C 48.1763 37.1923 37.3916 47.9195 24.0881 47.9195C 10.7846 47.9195 0 37.1923 0 23.9597C 0 10.7271 10.7846 0 24.0881 0C 37.3916 0 48.1763 10.7271 48.1763 23.9597Z"/>
<path id="path4_fill" d="M 0 0L 26.2136 0L 26.2136 5.63758L 0 5.63758L 0 0Z"/>
</defs>
</svg>
