<?xml version="1.0" encoding="UTF-8"?>
<svg width="211px" height="100px" viewBox="0 0 211 100" version="1.1" xmlns="http://www.w3.org/2000/svg" xmlns:xlink="http://www.w3.org/1999/xlink">
    <!-- Generator: Sketch 42 (36781) - http://www.bohemiancoding.com/sketch -->
    <title>PROLOOKLOGO</title>
    <desc>Created with Sketch.</desc>
    <defs></defs>
    <g id="Portfolio" stroke="none" stroke-width="1" fill="none" fill-rule="evenodd">
        <g id="PROLOOKLOGO" fill-rule="nonzero" fill="#B8B9B9">
            <path d="M38.500365,21.2539851 L38.500365,0 L146.405442,0 C147.654102,0.95642933 149.110873,2.01912859 150.463589,3.29436769 C152.128469,4.78214665 152.856854,6.80127524 152.856854,9.1392136 C152.856854,19.2348565 152.856854,29.3304995 152.752799,39.4261424 C152.752799,41.2327311 152.440634,43.1455898 151.712249,44.8459086 C150.463589,47.6089267 147.550047,47.9277365 145.156781,48.6716259 C144.220286,48.9904357 143.075681,48.6716259 142.03513,48.6716259 L92.0887108,48.6716259 L88.4467844,48.6716259 L88.4467844,27.4176408 L130.901241,27.4176408 L130.901241,21.1477152 C100.205004,21.2539851 69.6128221,21.2539851 38.500365,21.2539851 Z" id="Shape"></path>
            <path d="M79.3125237,27.6301807 L79.3125237,54.9415515 L172.75395,54.9415515 C173.17017,62.0616366 172.858005,69.0754516 172.96206,76.1955367 L57.9812404,76.1955367 C57.2528551,72.0510096 56.94069,44.314559 57.5650202,27.6301807 L79.3125237,27.6301807 Z" id="Shape"></path>
            <path d="M140.619756,99.9615043 C133.544013,99.4301546 125.63583,100.811664 118.143867,99.0050749 C116.062766,94.2229283 116.062766,89.7595914 117.831702,85.4025245 C120.329023,83.4896658 123.242564,84.0210154 126.05205,84.0210154 L135.417004,84.0210154 C138.22649,84.0210154 141.140031,83.5959357 143.637352,85.5087944 L143.637352,97.411026 C142.908967,98.0486456 142.076526,98.7925351 140.619756,99.9615043 Z M123.034454,95.4981674 L138.64271,95.4981674 C138.330545,92.9476892 138.85082,90.6097508 138.330545,88.3780824 L123.034454,88.3780824 L123.034454,95.4981674 Z" id="Shape"></path>
            <path d="M87.3021789,97.2369819 C85.2210781,99.2561105 83.1399773,99.8937301 80.6426564,99.8937301 C74.8155741,99.7874601 68.8844368,99.8937301 62.7451894,99.8937301 C62.1208592,99.0435707 61.4965289,98.0871413 60.3519235,96.3868225 L60.3519235,86.3974495 C61.0803087,85.9723698 62.1208592,85.3347503 63.1614096,84.6971307 C62.9532995,84.4845909 62.7451894,84.272051 62.6411344,83.9532412 L84.804858,83.9532412 C85.6372983,84.8034006 86.4697386,85.65356 87.3021789,86.5037194 L87.3021789,97.2369819 Z M81.9953719,88.3103082 L65.6587305,88.3103082 L65.6587305,95.4303932 L81.9953719,95.4303932 L81.9953719,88.3103082 Z" id="Shape"></path>
            <path d="M174.188138,83.9532412 C174.916523,84.8034006 175.748963,85.65356 176.685459,86.8225292 L176.685459,97.4495218 C175.957073,98.0871413 175.020578,98.8310308 173.667863,100 C168.361055,100 162.325863,99.8937301 156.290671,100 C153.79335,100 151.712249,99.4686504 149.839258,97.4495218 L149.839258,86.6099894 C150.567644,85.75983 151.504139,84.9096706 152.336579,84.0595112 C159.620432,83.9532412 166.80023,83.9532412 174.188138,83.9532412 Z M171.482707,88.4165781 L154.8339,88.4165781 C155.04201,90.9670563 154.62579,93.3049947 155.146065,95.5366631 L171.482707,95.5366631 L171.482707,88.4165781 Z" id="Shape"></path>
            <path d="M44.3274472,94.4739639 L35.3787138,94.4739639 L35.3787138,99.4686504 L30.1759617,99.4686504 L30.1759617,83.9532412 L50.5707497,83.9532412 C51.0910249,84.5908608 51.8194101,85.4410202 52.8599606,86.7162593 C52.8599606,89.1604676 53.5883458,92.3485654 49.7383093,93.8363443 C51.0910249,95.642933 52.4437404,97.5557917 53.900511,99.5749203 L47.8653186,99.5749203 C46.9288232,97.9808714 45.5761077,96.1742827 44.3274472,94.4739639 Z M35.4827688,90.9670563 L47.8653186,90.9670563 C47.7612636,89.4792774 47.6572085,88.2040383 47.6572085,87.0350691 L35.4827688,87.0350691 C35.4827688,88.4165781 35.4827688,89.6918172 35.4827688,90.9670563 Z" id="Shape"></path>
            <path d="M184.177422,99.6811902 L184.177422,84.0595112 L189.172064,84.0595112 L189.172064,90.3294368 C193.126155,88.2040383 196.664026,86.3974495 201.242448,83.9532412 L207.693861,83.9532412 C204.676265,87.3538789 200.305953,88.522848 196.143751,90.9670563 C200.930283,93.7300744 205.508705,96.3868225 211.023622,99.5749203 L201.866778,99.5749203 C197.704577,97.3432519 193.85454,95.2178533 189.484229,92.879915 C189.380174,95.3241233 189.172064,97.3432519 189.068009,99.5749203 C187.611238,99.6811902 186.154467,99.6811902 184.177422,99.6811902 Z" id="Shape"></path>
            <path d="M0.10405504,83.9532412 L20.2907329,83.9532412 C23.204274,86.7162593 23.6204942,89.7980871 21.1231732,93.7300744 C19.3542375,93.9426142 17.0650266,94.3676939 14.7758157,94.4739639 C11.6541645,94.5802338 8.53251332,94.4739639 5.09869698,94.4739639 L5.09869698,99.6811902 L3.01980663e-14,99.6811902 C0.10405504,94.5802338 0.10405504,89.4792774 0.10405504,83.9532412 Z M5.20275202,91.2858661 C9.15684356,91.2858661 12.5906599,91.1795962 16.0244762,91.2858661 C17.5853018,91.392136 17.6893569,90.5419766 17.5853018,89.3730074 C17.4812468,88.522848 17.4812468,87.7789586 17.3771918,87.2476089 L5.20275202,87.2476089 C5.20275202,88.629118 5.20275202,89.7980871 5.20275202,91.2858661 Z" id="Shape"></path>
            <path d="M90.5278852,83.9532412 L95.4184721,83.9532412 L95.4184721,95.4303932 L112.067279,95.4303932 L112.067279,99.5749203 L90.5278852,99.5749203 L90.5278852,83.9532412 Z" id="Shape"></path>
        </g>
    </g>
</svg>