<?xml version="1.0" encoding="UTF-8"?>
<svg width="20px" height="20px" viewBox="0 0 20 20" version="1.1" xmlns="http://www.w3.org/2000/svg" xmlns:xlink="http://www.w3.org/1999/xlink">
    <!-- Generator: Sketch 45.1 (43504) - http://www.bohemiancoding.com/sketch -->
    <title>hideout</title>
    <desc>Created with Sketch.</desc>
    <defs></defs>
    <g id="Page-1" stroke="none" stroke-width="1" fill="none" fill-rule="evenodd" fill-opacity="0.6" opacity="0.0858808877">
        <g id="hideout" transform="translate(-1.094238, -1.094238)" fill-rule="nonzero" fill="#000000">
            <g id="Page-1">
                <g id="Artboard-5">
                    <g id="Combined-Shape">
                        <g id="path0_fill-link" transform="translate(10.919682, 10.919682) rotate(-180.000000) translate(-10.919682, -10.919682) translate(0.919682, 0.919682)">
                            <path d="M0,18.6673386 L1.36897041,17.2983682 L2.05103694,17.9804347 L0.682066531,19.3494051 L0,19.3494051 L0,18.6673386 Z M0,0.67722918 L1.36897041,2.04619959 L2.05103694,1.36413306 L0.682066531,0 L0,0 L0,0.682066531 L0,0.67722918 Z M18.6673386,19.3494051 L17.2983682,17.9804347 L17.9804347,17.2983682 L19.3494051,18.6673386 L19.3494051,19.3494051 L18.6673386,19.3494051 Z M19.3494051,0.682066531 L17.9804347,2.05103694 L17.2983682,1.36897041 L18.6673386,0 L19.3494051,0 L19.3494051,0.682066531 Z M9.67470257,8.99747339 L11.043673,7.62850298 L11.7257395,8.31056951 L10.3567691,9.67470257 L11.7257395,11.043673 L11.043673,11.7257395 L9.67470257,10.3567691 L8.30573216,11.7257395 L7.62366562,11.043673 L8.99263604,9.67470257 L7.62366562,8.30573216 L8.30573216,7.62366562 L9.67470257,8.99263604 L9.67470257,8.99747339 Z" id="path0_fill"></path>
                        </g>
                    </g>
                </g>
            </g>
        </g>
    </g>
</svg>