<?xml version="1.0" encoding="UTF-8"?>
<svg width="24px" height="20px" viewBox="0 0 24 20" version="1.1" xmlns="http://www.w3.org/2000/svg" xmlns:xlink="http://www.w3.org/1999/xlink">
    <!-- Generator: Sketch 42 (36781) - http://www.bohemiancoding.com/sketch -->
    <title>Twitter</title>
    <desc>Created with Sketch.</desc>
    <defs></defs>
    <g id="Portfolio" stroke="none" stroke-width="1" fill="none" fill-rule="evenodd">
        <g id="Desktop-HD" transform="translate(-731.000000, -530.000000)" fill="#FFFFFF">
            <path d="M755,532.367642 C754.118155,532.769231 753.168692,533.040809 752.172742,533.162152 C753.189822,532.5381 753.970241,531.548573 754.337912,530.369809 C753.385631,530.947635 752.333333,531.368003 751.209192,531.593355 C750.313259,530.612495 749.032752,530 747.615601,530 C744.898222,530 742.693608,532.260744 742.693608,535.048754 C742.693608,535.444565 742.735869,535.828819 742.820391,536.198628 C738.728121,535.987721 735.100722,533.979776 732.670717,530.921632 C732.246698,531.669917 732.004402,532.5381 732.004402,533.462622 C732.004402,535.213434 732.873569,536.759119 734.194929,537.664861 C733.389153,537.640303 732.628456,537.410618 731.96355,537.035031 L731.96355,537.097147 C731.96355,539.54424 733.661032,541.58541 735.91495,542.047671 C735.502201,542.166125 735.066913,542.225352 734.617538,542.225352 C734.300581,542.225352 733.990667,542.195016 733.690615,542.135789 C734.317485,544.140845 736.134707,545.6013 738.290016,545.640303 C736.605212,546.995305 734.480895,547.802817 732.174855,547.802817 C731.777602,547.802817 731.384575,547.779704 731,547.733478 C733.179257,549.163597 735.768445,550 738.547808,550 C747.60574,550 752.557316,542.307692 752.557316,535.635247 C752.557316,535.415674 752.55309,535.1961 752.544638,534.98086 C753.506779,534.268689 754.342138,533.380282 755,532.367642" id="Twitter"></path>
        </g>
    </g>
</svg>