<?xml version="1.0" encoding="UTF-8"?>
<svg width="116px" height="100px" viewBox="0 0 116 100" version="1.1" xmlns="http://www.w3.org/2000/svg" xmlns:xlink="http://www.w3.org/1999/xlink">
    <!-- Generator: Sketch 42 (36781) - http://www.bohemiancoding.com/sketch -->
    <title>UVULOGO</title>
    <desc>Created with Sketch.</desc>
    <defs></defs>
    <g id="Portfolio" stroke="none" stroke-width="1" fill="none" fill-rule="evenodd">
        <g id="UVULOGO">
            <path d="M3.47047675,80.2507993 L3.47047675,88.830373 C3.47047675,89.7737123 4.21350311,90.5261101 5.15694403,90.5261101 L8.62973053,90.5261101 C9.56908499,90.5261101 10.3281019,89.7737123 10.3281019,88.830373 L10.3281019,80.2507993 L8.47355641,80.2507993 L8.47355641,88.4248668 C8.47355641,88.6611012 8.28913237,88.830373 8.05478235,88.830373 L5.74255256,88.830373 C5.51264436,88.830373 5.32839799,88.6611012 5.32839799,88.4248668 L5.32839799,80.2507993 L3.47047675,80.2507993" id="Fill-1" fill="#B8BAB9"></path>
            <polyline id="Fill-2" fill="#B8BAB9" points="21.9480604 90.5261101 23.7407758 90.5261101 23.7407758 80.2507993 21.9480604 80.2507993 21.9480604 86.9307282 18.0609417 80.2507993 16.2682262 80.2507993 16.2682262 90.5261101 18.0609417 90.5261101 18.0609417 83.8754885 21.9480604 90.5261101"></polyline>
            <polygon id="Fill-3" fill="#B8BAB9" points="29.7567664 90.5261101 31.6145099 90.5261101 31.6145099 80.2507993 29.7567664 80.2507993"></polygon>
            <polyline id="Fill-4" fill="#B8BAB9" points="44.5748297 80.2507993 42.7366301 80.2507993 40.5155463 87.717762 38.309387 80.2507993 36.4733195 80.2507993 39.6239858 90.5261101 41.4243411 90.5261101 44.5748297 80.2507993"></polyline>
            <polyline id="Fill-5" fill="#B8BAB9" points="55.5178561 81.9476021 55.5178561 80.2507993 49.2851051 80.2507993 49.2851051 90.5261101 55.5178561 90.5261101 55.5178561 88.830373 51.1364525 88.830373 51.1364525 86.1912966 55.1330175 86.1912966 55.1330175 84.4964476 51.1364525 84.4964476 51.1364525 81.9476021 55.5178561 81.9476021"></polyline>
            <path d="M66.7723423,84.4587922 C66.7723423,84.6960924 66.5879183,84.8619893 66.3526799,84.8619893 L63.3885697,84.8619893 L63.3885697,81.9476021 L66.3526799,81.9476021 C66.5879183,81.9476021 66.7723423,82.1190053 66.7723423,82.3477798 L66.7723423,84.4587922 Z M68.6247557,84.8619893 L68.6247557,81.9476021 C68.6247557,81.0065719 67.8655611,80.2507993 66.9274504,80.2507993 L61.5405982,80.2507993 L61.5405982,90.5261101 L63.3885697,90.5261101 L63.3885697,86.5598579 L65.3363932,86.5598579 L67.2820847,90.5261101 L69.3189221,90.5261101 L67.3428487,86.5122558 C68.0880071,86.328952 68.6247557,85.6664298 68.6247557,84.8619893 L68.6247557,84.8619893 Z" id="Fill-6" fill="#B8BAB9"></path>
            <path d="M74.6462541,87.6571936 L74.6462541,88.830373 C74.6462541,89.7737123 75.4011845,90.5261101 76.3412496,90.5261101 L79.6765176,90.5261101 C80.6199585,90.5261101 81.3574771,89.7737123 81.3574771,88.830373 L81.3574771,86.531794 C81.3574771,85.5884547 80.6361267,85.1113677 79.7522061,84.8619893 C78.6266509,84.5412078 77.8543086,84.3415631 76.9455138,84.0781528 C76.7132958,84.0131439 76.5290495,83.864476 76.5290495,83.6261101 L76.5290495,82.3477798 C76.5290495,82.1190053 76.7132958,81.9476021 76.9455138,81.9476021 L79.0559076,81.9476021 C79.2915013,81.9476021 79.4725496,82.1190053 79.4725496,82.3477798 L79.4725496,83.4589698 L81.3302932,83.1490231 L81.3302932,81.9476021 C81.3302932,81.0065719 80.5744744,80.2507993 79.62748,80.2507993 L76.3552858,80.2507993 C75.4162866,80.2507993 74.674504,81.0065719 74.674504,81.9476021 L74.674504,84.060746 C74.674504,85.0040853 75.4162866,85.449556 76.3250814,85.7271758 C77.4659165,86.0653641 77.9172046,86.1912966 79.0907314,86.5122558 C79.3348534,86.5783304 79.5080841,86.7161634 79.5080841,86.9479574 L79.5080841,88.4248668 C79.5080841,88.6611012 79.3206396,88.830373 79.0907314,88.830373 L76.9129997,88.830373 C76.6830915,88.830373 76.4963577,88.6611012 76.4963577,88.4248668 L76.4963577,87.3449378 L74.6462541,87.6571936" id="Fill-7" fill="#B8BAB9"></path>
            <polygon id="Fill-8" fill="#B8BAB9" points="87.1467575 90.5261101 89.0013029 90.5261101 89.0013029 80.2507993 87.1467575 80.2507993"></polygon>
            <polyline id="Fill-9" fill="#B8BAB9" points="98.1983417 90.5261101 98.1983417 81.9476021 100.996506 81.9476021 100.996506 80.2507993 93.5498964 80.2507993 93.5498964 81.9476021 96.3436186 81.9476021 96.3436186 90.5261101 98.1983417 90.5261101"></polyline>
            <polyline id="Fill-10" fill="#B8BAB9" points="107.714125 84.3415631 105.689192 80.2507993 103.731596 80.2507993 106.79005 86.3909414 106.79005 90.5261101 108.639266 90.5261101 108.639266 86.3909414 111.694522 80.2507993 109.734617 80.2507993 107.714125 84.3415631"></polyline>
            <path d="M3.44116079,9.83019538 L3.44116079,17.5616341 C3.44116079,18.4106572 4.10707729,19.0895204 4.95635179,19.0895204 L8.08534202,19.0895204 C8.93674859,19.0895204 9.61439147,18.4106572 9.61439147,17.5616341 L9.61439147,9.83019538 L7.94427006,9.83019538 L7.94427006,17.1996448 C7.94427006,17.4090586 7.77956766,17.5616341 7.5700918,17.5616341 L5.48226236,17.5616341 C5.2740302,17.5616341 5.11145988,17.4090586 5.11145988,17.1996448 L5.11145988,9.83019538 L3.44116079,9.83019538" id="Fill-11" fill="#B8BAB9"></path>
            <polyline id="Fill-12" fill="#B8BAB9" points="17.4209654 19.0895204 17.4209654 11.362167 19.9339651 11.362167 19.9339651 9.83019538 13.231448 9.83019538 13.231448 11.362167 15.7508439 11.362167 15.7508439 19.0895204 17.4209654 19.0895204"></polyline>
            <path d="M26.1668937,12.0539964 L27.2384365,15.5907638 L25.0997927,15.5907638 L26.1668937,12.0539964 Z M27.7243707,17.0760213 L28.3968611,19.0895204 L30.0744448,19.0895204 L26.9477643,9.83019538 L25.4032573,9.83019538 L22.271069,19.0895204 L23.9543382,19.0895204 L24.5943145,17.0760213 L27.7243707,17.0760213 L27.7243707,17.0760213 Z" id="Fill-13" fill="#B8BAB9"></path>
            <polyline id="Fill-14" fill="#B8BAB9" points="34.5677821 9.83019538 34.5677821 19.0895204 36.2380811 19.0895204 36.2380811 15.1287744 39.3832396 15.1287744 39.3832396 19.0895204 41.0501629 19.0895204 41.0501629 9.83019538 39.3832396 9.83019538 39.3832396 13.5989343 36.2380811 13.5989343 36.2380811 9.83019538 34.5677821 9.83019538"></polyline>
            <polyline id="Fill-15" fill="#B8BAB9" points="59.3465206 9.83019538 57.6904353 9.83019538 55.6839799 16.562167 53.6960024 9.83019538 52.0399171 9.83019538 54.8814332 19.0895204 56.5048268 19.0895204 59.3465206 9.83019538"></polyline>
            <path d="M66.0598756,12.0539964 L67.1303524,15.5907638 L64.9895765,15.5907638 L66.0598756,12.0539964 Z M67.6184187,17.0760213 L68.2864673,19.0895204 L69.9695588,19.0895204 L66.8373704,9.83019538 L65.2930412,9.83019538 L62.1663607,19.0895204 L63.8505182,19.0895204 L64.4906722,17.0760213 L67.6184187,17.0760213 L67.6184187,17.0760213 Z" id="Fill-16" fill="#B8BAB9"></path>
            <polyline id="Fill-17" fill="#B8BAB9" points="74.6007699 9.83019538 74.6007699 19.0895204 80.0537163 19.0895204 80.0537163 17.5616341 76.2708913 17.5616341 76.2708913 9.83019538 74.6007699 9.83019538"></polyline>
            <polyline id="Fill-18" fill="#B8BAB9" points="84.9235416 9.83019538 84.9235416 19.0895204 90.375422 19.0895204 90.375422 17.5616341 86.593663 17.5616341 86.593663 9.83019538 84.9235416 9.83019538"></polyline>
            <polyline id="Fill-19" fill="#B8BAB9" points="100.584306 11.362167 100.584306 9.83019538 94.9664791 9.83019538 94.9664791 19.0895204 100.584306 19.0895204 100.584306 17.5616341 96.6332248 17.5616341 96.6332248 15.1829485 100.233935 15.1829485 100.233935 13.6541741 96.6332248 13.6541741 96.6332248 11.362167 100.584306 11.362167"></polyline>
            <polyline id="Fill-20" fill="#B8BAB9" points="108.972224 19.0895204 108.972224 15.3651865 111.727036 9.83019538 109.959195 9.83019538 108.137163 13.5154529 106.312822 9.83019538 104.550489 9.83019538 107.305301 15.3651865 107.305301 19.0895204 108.972224 19.0895204"></polyline>
            <g id="Group-24" fill="#B8B9B9">
                <polygon id="Fill-21" points="0 4.160746 115.168374 4.160746 115.168374 0.0776198934 0 0.0776198934"></polygon>
                <polygon id="Fill-23" points="0 99.9893428 115.168374 99.9893428 115.168374 95.9145648 0 95.9145648"></polygon>
            </g>
            <polygon id="Fill-25" fill="#B8BAB9" points="0 26.9458259 115.168374 26.9458259 115.168374 24.7589698 0 24.7589698"></polygon>
            <polygon id="Fill-26" fill="#B8BAB9" points="0 74.862167 115.168374 74.862167 115.168374 72.6753108 0 72.6753108"></polygon>
            <polyline id="Fill-27" fill="#B8BAB9" points="111.80077 94.6319716 111.80077 92.3431616 112.601184 92.3431616 112.601184 92.0655417 110.768315 92.0655417 110.768315 92.3431616 111.52751 92.3431616 111.52751 94.6319716 111.80077 94.6319716"></polyline>
            <polyline id="Fill-28" fill="#B8BAB9" points="114.067516 94.1538188 113.411371 92.0655417 112.969855 92.0655417 112.969855 94.6319716 113.243115 94.6319716 113.243115 92.4548845 113.931774 94.6319716 114.206278 94.6319716 114.891738 92.4548845 114.891738 94.6319716 115.168374 94.6319716 115.168374 92.0655417 114.726858 92.0655417 114.067516 94.1538188"></polyline>
            <polyline id="Fill-29" fill="#B8BAB9" points="74.8695884 33.0509769 67.2202547 33.0509769 57.5927154 58.9197158 47.9511401 33.0509769 40.2964762 33.0509769 52.7449215 66.5689165 62.421143 66.5689165 74.8695884 33.0509769"></polyline>
            <polyline id="Fill-30" fill="#B8BAB9" points="3.38377258 33.0509769 3.38057447 58.8589698 6.24376666 66.5689165 32.7176784 66.5689165 35.5949067 58.8589698 35.5949067 33.0509769 20.4687593 33.0509769 20.4687593 40.2460036 27.9413089 40.2460036 27.9413089 58.8589698 11.0352384 58.8589698 11.0352384 33.0509769 3.38377258 33.0509769"></polyline>
            <polyline id="Fill-31" fill="#B8BAB9" points="79.576488 33.0509769 79.5732899 58.8589698 82.4364821 66.5689165 108.91377 66.5689165 111.784424 58.8589698 111.784424 33.0509769 104.132958 33.0509769 104.132958 58.8589698 87.2270654 58.8589698 87.2270654 33.0509769 79.576488 33.0509769"></polyline>
        </g>
    </g>
</svg>