<?xml version="1.0" encoding="UTF-8"?>
<svg width="100px" height="100px" viewBox="0 0 100 100" version="1.1" xmlns="http://www.w3.org/2000/svg" xmlns:xlink="http://www.w3.org/1999/xlink">
    <!-- Generator: Sketch 42 (36781) - http://www.bohemiancoding.com/sketch -->
    <title>vasalogo</title>
    <desc>Created with Sketch.</desc>
    <defs>
        <polygon id="path-1" points="0 99.9844156 0 0.180519481 99.8192208 0.180519481 99.8192208 99.9844156"></polygon>
    </defs>
    <g id="Portfolio" stroke="none" stroke-width="1" fill="none" fill-rule="evenodd">
        <g id="vasalogo">
            <g id="Group-4">
                <mask id="mask-2" fill="white">
                    <use xlink:href="#path-1"></use>
                </mask>
                <g id="Clip-2"></g>
                <path d="M4.6038961,50.0901299 C4.6038961,75.0719481 24.9280519,95.3958442 49.9096104,95.3958442 C74.8914286,95.3958442 95.2153247,75.0719481 95.2153247,50.0901299 C95.2153247,25.1085714 74.8914286,4.78467532 49.9096104,4.78467532 C24.9280519,4.78467532 4.6038961,25.1085714 4.6038961,50.0901299 Z" id="Fill-1" fill="#9E9F9E" mask="url(#mask-2)"></path>
                <path d="M49.9096104,96.1490909 C24.5127273,96.1490909 3.85064935,75.4872727 3.85064935,50.0901299 C3.85064935,24.6932468 24.5127273,4.03116883 49.9096104,4.03116883 C75.3064935,4.03116883 95.9685714,24.6932468 95.9685714,50.0901299 C95.9685714,75.4872727 75.3064935,96.1490909 49.9096104,96.1490909 Z M49.9096104,0.180519481 C22.3893506,0.180519481 0,22.5698701 0,50.0901299 C0,77.6103896 22.3893506,100 49.9096104,100 C77.4298701,100 99.8192208,77.6103896 99.8192208,50.0901299 C99.8192208,22.5698701 77.4298701,0.180519481 49.9096104,0.180519481 L49.9096104,0.180519481 Z" id="Fill-3" fill="#9E9F9E" mask="url(#mask-2)"></path>
            </g>
            <polyline id="Fill-5" fill="#FFFFFF" points="31.8085714 76.1651948 28.9987013 76.1651948 28.9987013 77.5090909 30.7374026 77.5090909 30.7374026 77.874026 28.9987013 77.874026 28.9987013 79.6742857 28.5919481 79.6742857 28.5919481 75.7932468 31.8085714 75.7932468 31.8085714 76.1651948"></polyline>
            <polygon id="Fill-6" fill="#FFFFFF" points="35.4763636 79.6742857 35.9763636 79.6742857 35.9763636 75.7812987 35.4763636 75.7812987"></polygon>
            <polyline id="Fill-7" fill="#FFFFFF" points="42.9519481 76.1651948 41.4501299 76.1651948 41.4501299 79.6742857 41.0553247 79.6742857 41.0553247 76.1651948 39.545974 76.1651948 39.545974 75.7932468 42.9519481 75.7932468 42.9519481 76.1651948"></polyline>
            <polyline id="Fill-8" fill="#FFFFFF" points="50.0641558 79.6742857 49.6077922 79.6742857 46.9197403 76.3592208 46.9 79.6742857 46.4932468 79.6742857 46.4932468 75.7812987 46.9197403 75.7812987 49.6628571 79.1753247 49.6628571 75.7812987 50.0641558 75.7812987 50.0641558 79.6742857"></polyline>
            <polyline id="Fill-9" fill="#FFFFFF" points="57.4797403 79.6742857 54.1101299 79.6742857 54.1101299 75.7932468 57.3402597 75.7932468 57.3402597 76.1651948 54.4987013 76.1651948 54.4987013 77.4971429 56.02 77.4971429 56.02 77.8685714 54.4987013 77.8685714 54.4987013 79.3031169 57.4797403 79.3031169 57.4797403 79.6742857"></polyline>
            <path d="M64.4264935,78.518961 C64.4264935,78.887013 64.2545455,79.1872727 63.9101299,79.418961 C63.5805195,79.6381818 63.1690909,79.7467532 62.6742857,79.7467532 C62.18,79.7467532 61.7709091,79.6823377 61.4462338,79.5522078 C61.2025974,79.4553247 60.914026,79.2755844 60.5812987,79.0122078 L60.8249351,78.7015584 C61.0685714,78.9238961 61.3405195,79.0927273 61.64,79.2062338 C61.9363636,79.3236364 62.2485714,79.3820779 62.5771429,79.3820779 C62.9428571,79.3820779 63.2612987,79.3109091 63.5324675,79.1690909 C63.8446753,79.0067532 64,78.785974 64,78.507013 C64,78.3083117 63.9220779,78.1514286 63.7641558,78.0379221 C63.6018182,77.9236364 63.4111688,77.867013 63.1919481,77.867013 L61.8174026,77.7701299 C61.5327273,77.7701299 61.2979221,77.672987 61.1119481,77.4776623 C60.9202597,77.2875325 60.8249351,77.0361039 60.8249351,76.7233766 C60.8249351,76.4150649 61.0236364,76.1581818 61.4215584,75.9506494 C61.7667532,75.7727273 62.1358442,75.6836364 62.5283117,75.6836364 C62.8168831,75.6836364 63.0903896,75.7301299 63.3496104,75.8231169 C63.6051948,75.9161039 63.858961,76.054026 64.1103896,76.2376623 L63.8722078,76.4994805 C63.6657143,76.3732468 63.4387013,76.2698701 63.1919481,76.1888312 C62.9444156,76.1114286 62.7033766,76.072987 62.4675325,76.072987 C62.1711688,76.072987 61.8976623,76.1314286 61.6462338,76.2496104 C61.3579221,76.3836364 61.2142857,76.5514286 61.2142857,76.7548052 C61.2142857,76.9171429 61.2828571,77.0605195 61.4215584,77.1867532 C61.5594805,77.3119481 61.7171429,77.3750649 61.8961039,77.3750649 L63.2825974,77.4602597 C63.578961,77.4602597 63.8446753,77.5651948 64.0802597,77.7763636 C64.3114286,77.9914286 64.4264935,78.238961 64.4264935,78.518961" id="Fill-10" fill="#FFFFFF"></path>
            <path d="M71.3241558,78.518961 C71.3241558,78.887013 71.1524675,79.1872727 70.8077922,79.418961 C70.4784416,79.6381818 70.067013,79.7467532 69.5719481,79.7467532 C69.0776623,79.7467532 68.6685714,79.6823377 68.3438961,79.5522078 C68.1002597,79.4553247 67.8119481,79.2755844 67.4792208,79.0122078 L67.7228571,78.7015584 C67.9662338,78.9238961 68.2381818,79.0927273 68.5379221,79.2062338 C68.8342857,79.3236364 69.1462338,79.3820779 69.4750649,79.3820779 C69.8407792,79.3820779 70.1592208,79.3109091 70.4303896,79.1690909 C70.7425974,79.0067532 70.8976623,78.785974 70.8976623,78.507013 C70.8976623,78.3083117 70.8197403,78.1514286 70.6620779,78.0379221 C70.4997403,77.9236364 70.3088312,77.867013 70.0898701,77.867013 L68.7150649,77.7701299 C68.4306494,77.7701299 68.1958442,77.672987 68.0096104,77.4776623 C67.8181818,77.2875325 67.7228571,77.0361039 67.7228571,76.7233766 C67.7228571,76.4150649 67.9212987,76.1581818 68.3194805,75.9506494 C68.6646753,75.7727273 69.0335065,75.6836364 69.4262338,75.6836364 C69.7145455,75.6836364 69.9880519,75.7301299 70.2475325,75.8231169 C70.5028571,75.9161039 70.7566234,76.054026 71.0080519,76.2376623 L70.7701299,76.4994805 C70.5636364,76.3732468 70.3366234,76.2698701 70.0898701,76.1888312 C69.8423377,76.1114286 69.601039,76.072987 69.3654545,76.072987 C69.0690909,76.072987 68.7955844,76.1314286 68.5441558,76.2496104 C68.2555844,76.3836364 68.1122078,76.5514286 68.1122078,76.7548052 C68.1122078,76.9171429 68.1807792,77.0605195 68.3194805,77.1867532 C68.4574026,77.3119481 68.6150649,77.3750649 68.794026,77.3750649 L70.1805195,77.4602597 C70.4768831,77.4602597 70.7425974,77.5651948 70.9781818,77.7763636 C71.2090909,77.9914286 71.3241558,78.238961 71.3241558,78.518961" id="Fill-11" fill="#FFFFFF"></path>
            <polyline id="Fill-12" fill="#FFFFFF" points="26.1784416 69.9872727 22.0431169 61.3490909 22.0223377 61.3044156 20.7519481 61.3044156 25.5737662 71.3914286 25.5945455 71.4363636 26.7901299 71.4363636 31.5332468 61.4168831 31.585974 61.3044156 30.2709091 61.3044156 26.1784416 69.9872727"></polyline>
            <polyline id="Fill-13" fill="#FFFFFF" points="40.3727273 61.274026 35.578961 71.3238961 35.5257143 71.4363636 36.7506494 71.4363636 40.7974026 62.8657143 43.2812987 68.0467532 44.8511688 71.3911688 44.8727273 71.4363636 46.3163636 71.4363636 41.3758442 61.274026 40.3727273 61.274026"></polyline>
            <path d="M59.1251948,65.5875325 L59.1246753,65.5875325 L55.5548052,65.3698701 C55.1187013,65.3698701 54.7264935,65.2135065 54.3875325,64.9057143 C54.0516883,64.5994805 53.8807792,64.2457143 53.8807792,63.852987 C53.8807792,63.367013 54.2394805,62.954026 54.9462338,62.6262338 C56.0851948,62.0922078 57.4574026,62.034026 58.8623377,62.4732468 C59.4862338,62.6787013 60.0688312,62.9444156 60.5945455,63.2633766 L60.6498701,63.2968831 L61.3633766,62.5124675 L61.2919481,62.461039 C60.6431169,61.9883117 59.9792208,61.6262338 59.3179221,61.3854545 C58.6457143,61.1441558 57.9267532,61.0220779 57.1805195,61.0220779 C56.1625974,61.0220779 55.1937662,61.2563636 54.3002597,61.7179221 C53.254026,62.2620779 52.7233766,62.9535065 52.7233766,63.7727273 C52.7233766,64.5950649 52.978961,65.265974 53.4818182,65.7662338 C53.9735065,66.281039 54.6023377,66.5423377 55.345974,66.5423377 L55.3464935,66.5423377 L58.887013,66.7906494 C59.4303896,66.7906494 59.9093506,66.9337662 60.3109091,67.2145455 C60.6971429,67.494026 60.8849351,67.8680519 60.8849351,68.3574026 C60.8849351,69.0496104 60.5054545,69.5836364 59.7251948,69.9901299 C59.0423377,70.3464935 58.2280519,70.5272727 57.3064935,70.5272727 C56.4758442,70.5272727 55.6750649,70.3774026 54.9254545,70.0818182 C54.1675325,69.7937662 53.4706494,69.3625974 52.8548052,68.7994805 L52.7922078,68.7423377 L52.0664935,69.6680519 L52.1277922,69.7168831 C52.9838961,70.3950649 53.7379221,70.8664935 54.3690909,71.1176623 C55.2083117,71.4532468 56.2805195,71.6233766 57.5545455,71.6233766 C58.8371429,71.6233766 59.9202597,71.3350649 60.7745455,70.7662338 C61.678961,70.1581818 62.1376623,69.3579221 62.1376623,68.3877922 C62.1376623,67.6485714 61.8298701,66.9867532 61.2220779,66.4205195 C60.6044156,65.8677922 59.8968831,65.5875325 59.1251948,65.5875325" id="Fill-14" fill="#FFFFFF"></path>
            <polyline id="Fill-15" fill="#FFFFFF" points="73.12 61.274026 68.3264935 71.3238961 68.272987 71.4363636 69.4979221 71.4363636 73.5449351 62.8657143 76.0285714 68.0467532 77.5987013 71.3911688 77.62 71.4363636 79.0636364 71.4363636 74.1233766 61.274026 73.12 61.274026"></polyline>
            <polyline id="Fill-16" fill="#FFFFFF" points="58.6542857 21.7337662 44.458961 55.9496104 54.8244156 55.9496104 69.0202597 21.7337662 58.6542857 21.7337662"></polyline>
            <polyline id="Fill-17" fill="#FFFFFF" points="49.5755844 43.5571429 40.8215584 21.7337662 30.7987013 21.7337662 44.4802597 55.838961 49.5755844 43.5571429"></polyline>
        </g>
    </g>
</svg>