<svg width="20" height="20" viewBox="0 0 20 20" version="1.1" xmlns="http://www.w3.org/2000/svg" xmlns:xlink="http://www.w3.org/1999/xlink">
<title>github-logo</title>
<desc>Created using Figma</desc>
<g id="Canvas" transform="translate(-4104 -713)">
<g id="github-logo">
<g id="Group">
<g id="Vector">
<use xlink:href="#path0_fill" transform="translate(4104 713)" fill="#FFFFFF"/>
</g>
<g id="Vector">
<use xlink:href="#path1_fill" transform="translate(4107.54 727.548)" fill="#FFFFFF"/>
</g>
<g id="Vector">
<use xlink:href="#path2_fill" transform="translate(4107.93 727.88)" fill="#FFFFFF"/>
</g>
<g id="Vector">
<use xlink:href="#path3_fill" transform="translate(4108.32 728.428)" fill="#FFFFFF"/>
</g>
<g id="Vector">
<use xlink:href="#path4_fill" transform="translate(4108.79 729.017)" fill="#FFFFFF"/>
</g>
<g id="Vector">
<use xlink:href="#path5_fill" transform="translate(4109.47 729.454)" fill="#FFFFFF"/>
</g>
<g id="Vector">
<use xlink:href="#path6_fill" transform="translate(4110.26 729.586)" fill="#FFFFFF"/>
</g>
<g id="Vector">
<use xlink:href="#path7_fill" transform="translate(4111.04 729.48)" fill="#FFFFFF"/>
</g>
</g>
</g>
</g>
<defs>
<path id="path0_fill" fill-rule="evenodd" d="M 10.0083 0C 4.47389 0 0 4.58352 0 10.2535C 0 14.7861 2.8666 18.6227 6.8434 19.9807C 7.3405 20.0826 7.52277 19.7601 7.52277 19.4884C 7.52277 19.2508 7.5062 18.4359 7.5062 17.5871C 4.72244 18.1983 4.14249 16.3649 4.14249 16.3649C 3.6951 15.1765 3.0323 14.871 3.0323 14.871C 2.12096 14.2429 3.09858 14.2429 3.09858 14.2429C 4.10935 14.3108 4.63959 15.2954 4.63959 15.2954C 5.53437 16.8572 6.97596 16.4158 7.55591 16.1442C 7.63876 15.4821 7.90388 15.0238 8.18557 14.7691C 5.96519 14.5315 3.62882 13.6487 3.62882 9.71027C 3.62882 8.58985 4.0265 7.67315 4.65616 6.96016C 4.55674 6.70552 4.20877 5.65301 4.75558 4.244C 4.75558 4.244 5.60065 3.97238 7.5062 5.29651C 8.30155 5.07582 9.16319 4.95699 10.0083 4.95699C 10.8533 4.95699 11.715 5.07582 12.5103 5.29651C 14.4159 3.97238 15.2609 4.244 15.2609 4.244C 15.8078 5.65301 15.4598 6.70552 15.3604 6.96016C 16.0066 7.67315 16.3877 8.58985 16.3877 9.71027C 16.3877 13.6487 14.0513 14.5145 11.8144 14.7691C 12.1789 15.0917 12.4938 15.7028 12.4938 16.6704C 12.4938 18.0455 12.4772 19.1489 12.4772 19.4884C 12.4772 19.7601 12.6595 20.0826 13.1566 19.9807C 17.1333 18.6227 20 14.7861 20 10.2535C 20.0165 4.58352 15.5261 0 10.0083 0Z"/>
<path id="path1_fill" d="M 0.259098 0.170447C 0.242528 0.221375 0.159678 0.238352 0.0933982 0.2044C 0.0271183 0.170448 -0.0225916 0.102544 0.0105484 0.0516158C 0.0271183 0.000687839 0.109968 -0.0162876 0.176248 0.0176644C 0.242528 0.0516163 0.275668 0.119519 0.259098 0.170447Z"/>
<path id="path2_fill" d="M 0.260883 0.296137C 0.211173 0.347065 0.111753 0.313113 0.0620436 0.245209C -0.00423633 0.177305 -0.0208064 0.0754494 0.0289035 0.0245214C 0.0786134 -0.0264066 0.161463 0.00754463 0.227743 0.0754486C 0.294023 0.160329 0.310593 0.262185 0.260883 0.296137Z"/>
<path id="path3_fill" d="M 0.26512 0.342863C 0.19884 0.393791 0.0994198 0.342863 0.0497098 0.257983C -0.01657 0.173103 -0.01657 0.0542712 0.0497098 0.0203192C 0.11599 -0.0306088 0.21541 0.0203192 0.26512 0.105199C 0.3314 0.190079 0.3314 0.291935 0.26512 0.342863Z"/>
<path id="path4_fill" d="M 0.350089 0.330492C 0.300379 0.398396 0.184389 0.381419 0.0849689 0.296539C 0.00211908 0.21166 -0.0310207 0.0928275 0.0352591 0.0418995C 0.0849691 -0.0260044 0.200959 -0.00902767 0.300379 0.0758523C 0.383229 0.143756 0.399798 0.262588 0.350089 0.330492Z"/>
<path id="path5_fill" d="M 0.416769 0.216722C 0.400199 0.301602 0.284209 0.335554 0.168219 0.301602C 0.0522296 0.26765 -0.0140503 0.165794 0.00251967 0.0978905C 0.0190896 0.0130105 0.135079 -0.0209415 0.251069 0.0130105C 0.367059 0.0469625 0.433339 0.131842 0.416769 0.216722Z"/>
<path id="path6_fill" d="M 0.430819 0.152784C 0.430819 0.237664 0.331399 0.305568 0.215409 0.305568C 0.0994196 0.305568 -1.26419e-07 0.237664 -1.26419e-07 0.152784C -1.26419e-07 0.0679037 0.0994196 -5.18066e-07 0.215409 -5.18066e-07C 0.331399 -5.18066e-07 0.430819 0.0679037 0.430819 0.152784Z"/>
<path id="path7_fill" d="M 0.416361 0.122085C 0.432931 0.206965 0.350081 0.291845 0.234091 0.308821C 0.118101 0.325797 0.0186813 0.274868 0.0021113 0.189988C -0.0144587 0.105108 0.0683909 0.0202284 0.184381 0.00325237C 0.300371 -0.0137236 0.399791 0.0372051 0.416361 0.122085Z"/>
</defs>
</svg>
