<svg width="23" height="20" viewBox="0 0 23 20" version="1.1" xmlns="http://www.w3.org/2000/svg" xmlns:xlink="http://www.w3.org/1999/xlink">
<title>medium-logo</title>
<desc>Created using Figma</desc>
<g id="Canvas" transform="translate(-4070 -713)">
<g id="medium-logo">
<g id="Group">
<g id="Vector">
<use xlink:href="#path0_fill" transform="translate(4080.6 713)" fill="#FFFFFF"/>
</g>
<g id="Vector">
<use xlink:href="#path1_fill" transform="translate(4078.25 717.904)" fill="#FFFFFF"/>
</g>
<g id="Vector">
<use xlink:href="#path2_fill" transform="translate(4085.76 718.104)" fill="#FFFFFF"/>
</g>
<g id="Vector">
<use xlink:href="#path3_fill" transform="translate(4070 713.088)" fill="#FFFFFF"/>
</g>
</g>
</g>
</g>
<defs>
<path id="path0_fill" d="M 11.9634 3.70994L 4.76653 0.0240385C 4.73518 0.00801282 4.69598 0 4.66462 0L 4.65678 0C 4.57054 0 4.48431 0.0480769 4.43727 0.120192L -2.39248e-07 7.49199L 4.95469 15.7212L 12.0418 3.95032C 12.0888 3.87019 12.0574 3.75 11.9634 3.70994Z"/>
<path id="path1_fill" d="M -2.39249e-07 6.1133e-08L -2.39249e-07 7.9407L 6.90677 11.4744L -2.39249e-07 6.1133e-08Z"/>
<path id="path2_fill" d="M 0 11.5785L 6.34231 14.8237C 6.68726 15 6.96949 14.8237 6.96949 14.4231L 6.96949 6.1133e-08L 0 11.5785Z"/>
<path id="path3_fill" d="M 7.48691 3.65385L 0.838847 0.25641L 0.423343 0.0480769C 0.360626 0.0160256 0.297908 1.91041e-09 0.25087 1.91041e-09C 0.180313 1.91041e-09 0.117595 0.0320513 0.0705572 0.088141C 0.0235191 0.136218 0 0.216346 0 0.3125L 0 15.8093C 0 16.0737 0.188153 16.3862 0.423343 16.5064L 6.95381 19.8397C 7.04788 19.8878 7.13412 19.9119 7.21252 19.9119C 7.43203 19.9119 7.58882 19.7356 7.58882 19.4471L 7.58882 3.8141C 7.58098 3.74199 7.54179 3.6859 7.48691 3.65385Z"/>
</defs>
</svg>
